<svg xmlns="http://www.w3.org/2000/svg" viewBox="0 0 48 48" width="48px" height="48px">
  <defs>
    <linearGradient id="grad1" x1="0%" y1="0%" x2="100%" y2="100%">
      <stop offset="0%" stop-color="#536dfe" />
      <stop offset="100%" stop-color="#00c853" />
    </linearGradient>
  </defs>
  <path fill="#1e1e1e" d="M42,4H6C4.9,4,4,4.9,4,6v36c0,1.1,0.9,2,2,2h36c1.1,0,2-0.9,2-2V6C44,4.9,43.1,4,42,4z M42,42H6V6h36V42z"/>
  <path fill="#1e1e1e" d="M6,10v28h36V10H6z"/>
  <path fill="url(#grad1)" d="M13,20v8h4v-8H13z M19,16v12h4V16H19z M25,22v6h4v-6H25z M31,14v14h4V14H31z"/>
</svg>
